<svg xmlns="http://www.w3.org/2000/svg" version="1.1" xmlns:xlink="http://www.w3.org/1999/xlink" xmlns:svgjs="http://svgjs.com/svgjs" width="512" height="512" x="0" y="0" viewBox="0 0 64 64" style="enable-background:new 0 0 512 512" xml:space="preserve" class=""><g><linearGradient id="linear-gradient" gradientUnits="userSpaceOnUse" x1="6" x2="58" y1="32.69" y2="32.69"><stop offset="0" stop-color="#00c0ff"></stop><stop offset="1" stop-color="#5558ff"></stop></linearGradient><path d="m31.6 54.49h9.75l-2.35 3.27h-9.69zm11.2-2 3.89-5.38-11.21 5.38zm-4.56-18.62-5.52 17.72 16.08-7.71v-15.43l-.11-.11zm-1.92-.59a2 2 0 0 1 1-1.18l9.83-5.2-25.95-5.69-2.21 6 .11 5.7 11.67 18.22zm-12.61-20.2-1.39 4.6 13.28-8.8zm-4.1 6.65 1.87-6.16-9.81 1.67-5.67 7.97 11.36 2.62zm19.57-5.88 1.93-6.23-14.74 9.78zm-23.45 31s6.2-3.85 6.18-3.85l-3.46-5.4zm40.05-8.27h-5v7.2l4.68 1.19 2.54-4.64z" fill="url(#linear-gradient)" data-original="url(#linear-gradient)"></path></g></svg>