<svg width="43" height="43" viewBox="0 0 43 43" fill="none" xmlns="http://www.w3.org/2000/svg">
<g clip-path="url(#clip0_171_29)">
<path d="M21.5 43C33.3754 43 43 33.3754 43 21.5C43 9.62461 33.3754 0 21.5 0C9.62461 0 0 9.62461 0 21.5C0 33.3754 9.62461 43 21.5 43ZM18.8125 16.125V26.875C18.8125 28.3615 17.6115 29.5625 16.125 29.5625C14.6385 29.5625 13.4375 28.3615 13.4375 26.875V16.125C13.4375 14.6385 14.6385 13.4375 16.125 13.4375C17.6115 13.4375 18.8125 14.6385 18.8125 16.125ZM29.5625 16.125V26.875C29.5625 28.3615 28.3615 29.5625 26.875 29.5625C25.3885 29.5625 24.1875 28.3615 24.1875 26.875V16.125C24.1875 14.6385 25.3885 13.4375 26.875 13.4375C28.3615 13.4375 29.5625 14.6385 29.5625 16.125Z" fill="url(#paint0_linear_171_29)"/>
</g>
<defs>
<linearGradient id="paint0_linear_171_29" x1="21.5" y1="0" x2="21.5" y2="43" gradientUnits="userSpaceOnUse">
<stop stop-color="#0CB2FF"/>
<stop offset="1" stop-color="#4171FF"/>
</linearGradient>
<clipPath id="clip0_171_29">
<rect width="43" height="43" fill="white"/>
</clipPath>
</defs>
</svg>
