<svg width="43" height="43" viewBox="0 0 43 43" fill="none" xmlns="http://www.w3.org/2000/svg">
<g clip-path="url(#clip0_160_27)">
<path d="M42.5 21.25C42.5 32.9873 32.9873 42.5 21.25 42.5C9.5127 42.5 0 32.9873 0 21.25C0 9.5127 9.5127 0 21.25 0C32.9873 0 42.5 9.5127 42.5 21.25ZM15.6304 12.2104C14.9995 12.5591 14.6094 13.2314 14.6094 13.9453V28.5547C14.6094 29.2769 14.9995 29.9409 15.6304 30.2896C16.2612 30.6382 17.0249 30.6299 17.6475 30.248L29.6006 22.9434C30.1899 22.5781 30.5552 21.939 30.5552 21.2417C30.5552 20.5444 30.1899 19.9053 29.6006 19.54L17.6475 12.2354C17.0332 11.8618 16.2612 11.8452 15.6304 12.1938V12.2104Z" fill="url(#paint0_linear_160_27)"/>
</g>
<defs>
<linearGradient id="paint0_linear_160_27" x1="21.25" y1="0" x2="21.25" y2="42.5" gradientUnits="userSpaceOnUse">
<stop stop-color="#0CB2FF"/>
<stop offset="1" stop-color="#4171FF"/>
</linearGradient>
<clipPath id="clip0_160_27">
<rect width="42.5" height="42.5" fill="white"/>
</clipPath>
</defs>
</svg>
